<svg width="1198" height="894" viewBox="0 0 1198 894" fill="none" xmlns="http://www.w3.org/2000/svg">
<g filter="url(#filter0_d)">
<rect x="576.626" y="833.604" width="1000" height="1000" rx="300" transform="rotate(-121.766 576.626 833.604)" fill="url(#paint0_linear)"/>
</g>
<mask id="mask0" mask-type="alpha" maskUnits="userSpaceOnUse" x="50" y="-544" width="1377" height="1378">
<rect x="576.626" y="833.604" width="1000" height="1000" rx="300" transform="rotate(-121.766 576.626 833.604)" fill="url(#paint1_linear)"/>
</mask>
<g mask="url(#mask0)">
<path d="M1066.53 418.237C1052.42 438.103 1066.68 482.018 1071.36 502.75C1080.61 543.743 1092.13 583.732 1103.16 623.876C1114.19 664.02 1125.34 704.16 1133.66 745.518C1139.06 772.366 1145.94 803.175 1141.45 832.772C1131.87 895.839 1062.62 835.862 1042.69 823.114C991.965 790.697 936.752 749.372 873.703 740.636C836.066 735.421 807.903 751.71 788.624 791.037C782.338 803.816 778.529 820.973 765.812 828.7C752.232 836.955 735.659 835.461 722.686 833.129C675.384 824.601 633.403 797.475 594.544 772.828C552.61 746.295 512.438 716.503 472.316 688.04C455.304 675.971 432.268 670.723 411.791 665.202C384.947 657.962 357.657 651.879 330.499 645.445C270.788 631.247 208.948 617.048 156.65 586.847C123.895 567.935 93.3547 539.92 88.2956 496.763C85.7534 475.097 93.4762 451.114 98.9838 428.845C105.62 401.931 112.733 375.051 118.594 348.079C137.466 261.205 142.997 167.069 78.943 116.268C69.2509 108.585 58.2415 103.121 48.03 96.263C41.5318 91.8894 37.211 85.9546 40.6651 76.1318C49.3199 51.4835 91.0679 32.6867 110.321 22.0001C152.468 -1.38903 195.623 -21.6553 238.204 -43.6542C266.372 -58.2008 309.14 -75.0199 329.321 -102.747C347.302 -127.455 333.09 -164.8 327.115 -187.594C321.509 -208.942 307.964 -242.896 323.143 -267.286C330.503 -279.113 343.315 -284.106 354.896 -286.808C375.174 -291.516 394.467 -291.262 414.91 -298.564C448.433 -310.551 485.65 -333.423 506.37 -367.087C520.727 -390.414 520.761 -412.398 517.511 -435.766C516.147 -445.588 514.603 -452.952 521.109 -462.658C531.431 -478.071 547.692 -490.558 561.685 -501.682C611.753 -541.487 666.637 -575.352 721.503 -604.379C748.92 -618.886 777.19 -632.677 805.9 -641.241C824.728 -646.881 848.684 -652.486 863.577 -641.794C880.839 -629.432 893.658 -608.749 906.365 -591.047C930.097 -557.978 952.259 -523.525 974.07 -488.841C1024.5 -408.619 1072.57 -326.516 1118.28 -242.532C1150.45 -183.335 1183.64 -123.352 1207.22 -58.3933C1211.85 -45.4334 1215.17 -32.0425 1217.13 -18.4211C1219.4 -3.74255 1227.12 7.62383 1235.69 18.1122C1288.88 83.221 1370.98 121.275 1443.39 160.124C1461.77 169.989 1480.15 179.84 1498.11 190.394C1513.55 199.465 1533.59 208.133 1543.64 223.874C1563.44 254.879 1509.81 278.49 1487.59 287.842C1409.35 320.781 1327.1 337.158 1247.52 357.015C1209.66 366.496 1171.68 375.801 1133.95 387.451C1114.32 393.495 1078.9 400.821 1066.53 418.237Z" stroke="white" stroke-opacity="0.05" stroke-width="2" stroke-miterlimit="10"/>
<path d="M1051.69 412.661C1047.75 441.555 1056.08 470.962 1061.76 497.094C1069.94 534.707 1079.68 571.675 1088.65 608.957C1097.12 644.213 1105.5 679.718 1110.45 716.408C1113.48 738.781 1117.83 766.068 1109.65 790.094C1091.91 842.179 1026.98 785.85 1009 774.668C964.31 746.856 915.439 712.819 859.779 707.07C825.026 703.481 798.169 719.572 780.215 755.758C774.004 768.277 770.423 780.199 758.283 788.384C744.238 797.86 727.437 798.008 713.251 796.447C668.81 791.557 628.642 768.514 592.036 747.06C554.219 724.897 515.604 700.708 482.957 673.733C469.9 662.95 450.24 657.005 433.691 651.392C408.226 642.767 382.278 635.267 356.582 627.178C304.36 610.748 251.406 593.025 206.318 563.034C173.766 541.382 144.905 511.715 134.941 469.798C124.854 427.304 138.852 382.653 148.599 337.658C165.484 259.891 182.556 162.863 132.198 107.815C124.564 99.4642 115.175 94.3046 106.521 87.3989C102.068 83.8511 97.3434 79.3322 98.9816 72.0924C103.235 53.2963 138.818 38.8418 152.348 31.8006C189.741 12.344 227.989 -4.23539 265.705 -22.5721C295.655 -37.128 330.952 -51.8599 356.146 -76.4932C386.719 -106.387 364.584 -159.094 367.927 -193.168C373.731 -252.249 436.506 -243.325 473.318 -247.113C515.588 -251.456 566.846 -277.899 568.996 -329.916C569.815 -349.811 564.669 -365.697 573.357 -386.203C586.943 -418.271 614.241 -446.485 638.83 -470.193C675.807 -505.823 716.886 -537.843 759.759 -563.274C790.465 -581.479 839.673 -609.259 865.81 -585.814C883.419 -570.05 897.382 -548.527 911.16 -528.473C931.791 -498.452 951.063 -467.273 969.871 -435.752C1013.35 -363.068 1054.1 -288.066 1091.46 -210.917C1116.95 -158.268 1166.92 18.0876 1173.32 27.6803C1192.38 56.2752 1223.35 75.8205 1251.39 93.5895C1288.7 117.226 1328.14 137.507 1367.27 158.15C1385.89 167.989 1404.97 177.376 1422.83 188.449C1435.55 196.332 1451.99 207.057 1456.46 223.284C1465.18 254.946 1414.53 276.828 1393.32 286.241C1328.33 315.119 1260.35 331.756 1193.99 351.016C1161.41 360.48 1128.61 369.721 1096.37 382.049C1083.36 387.035 1054.11 394.811 1051.69 412.661Z" stroke="white" stroke-opacity="0.05" stroke-width="2" stroke-miterlimit="10"/>
<path d="M1042.79 411.914C1042.99 475.52 1059.6 535.266 1070.54 596.098C1076.02 626.639 1069.93 659.61 1070.52 691.728C1070.83 708.432 1071.09 729.461 1061.78 745.77C1036.86 789.388 978.076 738.982 958.204 727.081C919.767 704.082 877.142 676.989 829.368 674.143C800.174 672.411 775.371 686.118 759.55 716.153C752.529 729.478 747.744 741.643 734.953 750.5C721.993 759.472 706.897 761.545 693.213 761.404C653.883 761.012 617.142 743.58 584.531 726.841C546.387 707.221 510.074 684.228 476.029 658.135C446.231 635.318 408.016 624.565 373.055 610.479C326.748 591.815 280.588 571.421 241.129 541.248C209.969 517.412 183.493 486.505 171.271 446.002C158.884 404.796 165.144 360.881 174.855 315.609C189.533 247.169 211.335 156.986 175.744 101.514C170.571 93.4412 164.051 88.2908 156.943 82.4394C153.489 79.5987 148.857 76.1677 150.365 70.2654C153.995 56.0489 185.428 45.9609 195.269 41.653C226.693 27.8843 258.538 16.0562 290.09 2.86342C319.543 -9.45373 350.881 -21.8297 377.888 -41.6409C420.888 -73.202 395.044 -128.17 424.38 -166.577C442.594 -190.422 474.254 -194.205 498.07 -195.447C527.382 -196.959 561.253 -187.499 590.027 -207.958C611.463 -223.195 608.975 -242.78 611.556 -264.14C615.928 -300.337 640.192 -336.269 663.224 -365.298C694.342 -404.529 731.699 -440.197 771.759 -468.056C789.913 -480.691 809.911 -493.029 830.197 -498.413C849.207 -503.454 861.101 -499.717 872.894 -487.453C908.984 -449.896 935.571 -398.215 961.697 -350.348C994.519 -290.208 1024.85 -228.044 1051.3 -163.593C1069.34 -119.645 1087.26 -73.973 1095.69 -25.0613C1097.89 -12.3107 1099.8 1.20739 1098.3 14.8751C1097.19 25.164 1094.61 32.4676 1098.6 41.648C1110.4 68.8453 1141.48 86.2001 1164.56 100.777C1201.45 124.095 1240.61 143.878 1279.33 164.174C1301.94 175.997 1347.15 194.624 1347.94 228.168C1348.63 257.129 1308.56 276.982 1287.96 287.311C1235.86 313.428 1181.1 329.888 1127.62 348.908C1103.11 357.624 1092.16 365.612 1068.36 377.771C1065.52 379.217 1062.1 380.773 1058.57 382.68C1054.93 384.639 1051.2 387.025 1048.55 389.944C1042.85 396.227 1042.78 404.082 1042.79 411.914Z" stroke="white" stroke-opacity="0.05" stroke-width="2" stroke-miterlimit="10"/>
<path d="M1033.06 400.813C1034.44 457.917 1046.28 512.499 1051.43 568.694C1053.73 593.889 1055.62 619.942 1052.28 646.268C1050.48 660.426 1047.13 677.466 1036.52 689.071C1006.07 722.368 956.847 682.139 934.48 669.347C901.273 650.303 863.438 627.984 821.99 628.016C794.841 628.036 774.513 642.213 760.315 669.112C745.09 697.968 723.389 711.29 694.598 712.851C658.512 714.795 624.201 701.546 593.767 687.8C557.262 671.286 522.684 650.807 490.657 626.732C459.582 603.358 424.332 587.893 389.927 569.612C344.312 545.367 299.381 517.346 266.398 476.46C237.68 440.859 220.995 395.781 220.984 344.538C220.953 291.043 240.297 237.526 247.722 183.685C252.352 150.102 257.561 105.02 240.369 78.365C234.637 69.476 217.001 63.3 234.529 52.3209C244.552 46.0394 256.976 43.129 267.584 39.7225C284.725 34.2173 301.922 29.2442 319.093 24.0064C355.698 12.8365 394.018 2.10025 429.14 -17.0042C473.374 -41.0519 467.137 -88.413 497.121 -123.448C513.254 -142.304 536.193 -150.147 557.336 -154.073C571.02 -156.623 584.658 -157.549 598.142 -157.875C612.221 -158.222 626.803 -155.721 641.158 -158.919C661.602 -163.459 667.418 -181.999 677.023 -199.915C693.951 -231.483 714.029 -261.257 736.951 -288.784C765.045 -322.531 797.359 -354.796 833.352 -377.971C847.361 -386.996 863.245 -395.829 878.674 -397.553C894.102 -399.277 903.395 -391.752 912.324 -381.509C938.831 -351.157 958.132 -310.881 976.512 -272.641C999.514 -224.778 1020.03 -175.01 1036.58 -123.243C1048.01 -87.5107 1058.47 -50.2569 1061.26 -10.9095C1062.06 0.540222 1062.22 12.2912 1060.65 24.1623C1059.57 32.3066 1055.81 41.1148 1057.2 48.8063C1061.56 72.8382 1093.13 89.2079 1110.43 100.377C1144.94 122.671 1183.24 138.576 1217.88 160.591C1236.8 172.605 1267.1 190.459 1266.92 218.923C1266.76 245.685 1235.35 265.517 1215.58 277.259C1176.73 300.351 1135.43 316.143 1095.26 334.708C1078.73 342.353 1061.08 350.09 1045.82 361.403C1032.24 371.492 1032.71 386.174 1033.06 400.813Z" stroke="white" stroke-opacity="0.05" stroke-width="2" stroke-miterlimit="10"/>
<path d="M1026.62 395.285C1025.49 443.853 1031.55 492.03 1030.2 541.247C1029.4 570.063 1028.6 618.893 998.846 639.018C966.168 661.143 926.799 634.19 902.645 620.561C873.896 604.34 839.74 585.845 803.448 588.282C791.973 589.051 780.19 592.507 770.165 600.996C759.436 610.08 755.542 621.965 747.993 633.345C732.157 657.217 707.39 667.75 683.129 669.794C648.839 672.687 616.067 662.194 586.631 650.162C553.478 636.597 522.056 619.137 493.028 598.151C465.369 578.168 437.383 559.262 408.992 540.241C371.85 515.386 336.356 487.149 309.558 450.15C283.164 413.695 267.187 369.354 265.31 319.617C263.487 271.086 274.495 221.254 288.039 172.16C295.728 144.296 305.639 101.524 294.282 76.5354C289.235 65.4098 280.551 59.7067 298.931 53.359C322.075 45.3652 346.923 43.4485 370.206 39.1104C403.797 32.8428 438.154 26.5303 471.365 14.2634C492.575 6.43125 507.746 -5.04495 521.148 -25.2549C531.35 -40.66 539.496 -57.2936 551.545 -71.4599C579.817 -104.714 620.011 -112.618 656.363 -120.752C679.746 -125.981 699.535 -128.57 721.013 -144.444C746.403 -163.204 768.752 -187.39 792.185 -208.966C817.926 -232.654 845.366 -256.819 875.594 -272.271C902.501 -286.032 923.226 -286.002 939.527 -265.424C964.967 -233.336 980.343 -188.16 993.792 -146.922C1007.49 -104.957 1018.8 -60.7 1021.84 -14.3226C1023.48 10.7211 1019.04 35.5694 1018.4 60.7479C1017.61 92.375 1056.08 107.734 1076.8 119.848C1111.2 139.957 1228.72 190.268 1167.45 256.033C1141.88 283.484 1106.49 300.377 1076.12 319.007C1063.52 326.744 1047.25 335.202 1037.1 347.142C1026.05 360.141 1026.97 380.668 1026.62 395.285Z" stroke="white" stroke-opacity="0.05" stroke-width="2" stroke-miterlimit="10"/>
<path d="M1016.86 384.102C1012.68 425.853 1013.01 468.364 1004.72 510.755C999.36 538.22 988.854 572.515 960.973 585.667C929.506 600.506 895.006 584.511 870.433 571.675C845.114 558.444 815.712 541.514 783.502 546.785C773.25 548.47 762.559 552.984 754.741 561.962C747.238 570.569 743.118 581.6 735.552 590.416C718.567 610.216 695.605 620.105 673.029 623.042C606.243 631.723 540.708 597.356 491.704 563.739C467.178 546.91 444.12 526.541 421.091 507.291C391.209 482.31 363.224 454.577 341.883 420.76C296.5 348.867 294.939 260.386 316.425 167.063C323.188 137.688 333.496 108.048 331.731 79.2845C330.832 64.4412 337.325 58.893 351.245 55.9132C373.005 51.2585 395.185 51.6773 416.702 50.195C447.303 48.089 478.485 46.0405 509.112 39.1995C530.224 34.483 547.593 27.8098 564.197 9.95896C576.038 -2.76817 585.847 -17.354 597.031 -30.6824C618.284 -56.0013 644.389 -77.5333 672.808 -90.8045C695.358 -101.306 718.651 -108.847 741.805 -115.361C771.895 -123.673 801.045 -135.07 828.792 -149.373C867.152 -169.141 930.88 -210.638 957.649 -168.408C987.167 -121.82 995.517 -51.1864 992.532 9.31698C991.531 29.6325 986.672 51.9476 991.408 70.8478C998.518 99.1212 1017.25 111.721 1038.8 127.058C1071.06 150.029 1147.23 191.672 1105.83 251.081C1089.42 274.617 1065.36 290.748 1045.33 310.346C1022.88 332.275 1019.69 355.631 1016.86 384.102Z" stroke="white" stroke-opacity="0.05" stroke-width="2" stroke-miterlimit="10"/>
<path d="M1006.09 372.4C995.296 422.99 987.638 513.334 928.261 535.668C896.888 547.479 864.004 536.804 837.897 525.783C816.875 516.936 793.958 502.855 767.835 510.466C748.632 516.064 739.762 537.873 724.445 551.127C705.453 567.558 682.861 575.947 660.648 578.508C598.572 585.667 538.733 558.654 491.854 528.452C443.174 497.079 399.083 449.174 369.705 396.705C333.08 331.276 326.873 252.612 342.457 169.777C345.339 154.49 348.916 139.248 352.107 123.973C354.24 113.721 354.53 102.538 357.683 92.4025C362.946 75.5151 376.262 68.1593 391.164 65.368C412.609 61.3411 434.211 63.0136 455.083 63.4135C483.635 63.9515 512.442 65.031 541.291 62.3331C560.686 60.5047 581.217 58.2771 598.405 43.3159C610.129 33.1127 620.06 20.526 629.075 7.71811C648.398 -19.7456 665.383 -40.9815 693.73 -58.5074C740.309 -87.252 793.164 -105.242 843.07 -115.965C882.237 -124.379 943.712 -136.999 964.088 -98.0278C982.391 -63.0909 974.405 -16.5571 973.278 24.8805C972.73 45.0248 974.157 64.8028 979.347 83.1293C985.894 106.234 996.607 121.633 1013.27 136.577C1041.3 161.73 1086.58 195.471 1064.08 246.766C1055.77 265.7 1041.59 281.31 1031.49 299.273C1018.1 323.009 1011.53 346.88 1006.09 372.4Z" stroke="white" stroke-opacity="0.05" stroke-width="2" stroke-miterlimit="10"/>
<path d="M989.632 358.451C971.396 409.206 949.054 473.629 893.293 490.412C866.281 498.543 839.309 494.587 814.811 488.521C797.264 484.18 774.431 470.252 754.088 480.971C739.129 488.869 726.124 505.231 711.125 514.428C691.448 526.437 669.249 533.706 646.28 535.659C589.083 540.756 534.56 519.51 490.11 492.776C393.536 434.671 342.288 309.899 362.002 179.115C367.875 140.129 370.825 96.2688 415.267 83.9695C463.768 70.5634 513.179 83.398 560.062 82.7629C577.969 82.528 600.345 82.8514 618.08 71.906C628.744 65.3286 637.456 53.7331 645.042 43.5201C664.38 17.5161 683.139 -4.89099 709.419 -23.2573C750.029 -51.6447 796.501 -71.3797 841.281 -82.7399C880.333 -92.6432 931.525 -100.484 949.283 -60.4674C962.874 -29.7555 956.712 10.3627 959.451 45.1516C962.488 83.8845 975.98 118.18 997.908 145.917C1019.25 172.878 1045 199.195 1035.67 242.134C1032.47 256.863 1027.12 275.063 1020.02 288.821C1008.32 311.314 998.166 334.577 989.629 358.45L989.632 358.451Z" stroke="white" stroke-opacity="0.05" stroke-width="2" stroke-miterlimit="10"/>
<path d="M970.352 344.196C945.391 390.759 914.196 435.611 864.423 450.753C841.198 457.813 818.048 458.068 795.477 457.155C778.871 456.484 762.725 454.387 745.58 460.506C729.701 466.168 714.396 474.988 698.58 481.139C678.339 489.174 656.937 493.899 635.194 495.134C582.433 497.806 532.589 481.033 490.366 457.36C469.923 445.91 448.594 432.296 433.903 413.079C419.71 394.525 408.029 372.892 398.651 350.708C378.698 303.563 370.703 249.726 377.188 193.541C381.647 155.011 392.581 122.27 432.424 108.476C477.338 92.9309 524.81 100.602 568.325 100.804C598.171 100.94 630.208 103.065 655.27 75.8807C675.216 54.2525 693.739 33.4326 717.426 16.4496C752.464 -8.52865 790.602 -26.5727 829.578 -36.6127C865.16 -45.7091 903.357 -47.6925 922.101 -15.8038C936.939 9.47898 938.29 43.2826 946.205 72.4233C954.997 104.938 971.449 131.177 990.479 156.428C1007.56 179.148 1020.69 204.666 1018.74 237.488C1018.46 244.443 1017.67 251.368 1016.35 258.204C1014.5 266.852 1009.59 273.235 1004.86 281.034C992.348 301.601 981.649 323.121 970.352 344.196Z" stroke="white" stroke-opacity="0.05" stroke-width="2" stroke-miterlimit="10"/>
<path d="M946.366 332.282C916.919 372.401 881.564 404.928 837.149 420.821C818.154 427.623 799.051 430.749 779.928 435.752C764.523 439.789 750.076 443.451 734.684 444.852C698.2 448.139 661.846 460.167 625.474 460.31C576.894 460.535 531.07 447.074 491.031 426.139C471.479 415.918 452.504 403.651 436.554 387.957C422.858 374.481 414.17 355.382 406.691 336.857C392.028 300.55 383.293 257.615 387.812 214.447C397.766 119.272 508.831 124.425 568.383 123.513C595.772 123.091 634.114 127.346 660.239 106.361C678.904 91.3735 695.746 74.5993 715.507 61.272C768.577 25.4842 846.478 -5.52251 890.074 37.2532C908.728 55.5491 918.368 82.508 931.595 105.444C945.212 129.062 962.38 149.086 979.339 169.713C995.19 188.986 1005.48 207.63 1003.83 236.678C1003.05 250.552 994.337 261.592 986.494 273.685C973.606 293.546 960.302 313.273 946.366 332.282Z" stroke="white" stroke-opacity="0.05" stroke-width="2" stroke-miterlimit="10"/>
<path d="M923.083 323.451C871.471 378.876 794.45 424.578 726.004 429.216C645.499 434.675 565.485 430.525 497.76 397.299C466.359 381.897 433.985 362.197 418.486 327.932C406.686 301.861 395.758 267.696 402.206 235.276C417.971 155.971 512.432 151.497 566.64 148.401C595.823 146.737 629.783 149.069 659.326 137.277C676.459 130.445 692.554 116.696 709.016 107.503C758.911 79.6526 815.774 69.0901 860.706 92.095C881.48 102.735 897.901 119.734 914.557 135.831C931.605 152.303 949.813 167.659 965.946 185.155C978.822 199.127 992.839 217.211 984.263 240.954C973.458 270.881 944.159 300.816 923.083 323.451Z" stroke="white" stroke-opacity="0.05" stroke-width="2" stroke-miterlimit="10"/>
<path d="M896.866 319.518C844.254 368.7 779.805 407.269 714.333 412.237C679.617 414.871 645.44 409.377 612.376 404.451C574.899 398.866 538.444 389.256 505.319 373.717C464.069 354.371 400.723 318.194 417.966 253.913C435.082 190.108 514.681 179.794 561.068 174.65C590.8 171.366 620.844 170.326 650.851 164.953C667.122 162.039 682.312 156.086 698.332 150.477C742.666 134.896 791.667 132.514 833.001 142.111C873.062 151.405 915.333 173.088 944.897 200.672C957.657 212.57 963.315 225.909 955.063 246.418C943.569 274.918 918.602 299.204 896.866 319.518Z" stroke="white" stroke-opacity="0.05" stroke-width="2" stroke-miterlimit="10"/>
<path d="M866.72 321.325C819.099 363.697 761.408 392.227 703.746 396.836C639.114 402.004 573.719 383.764 519.168 359.237C490.175 346.196 425.358 320.716 440.811 271.858C456.264 223 521.554 210.702 558.431 204.6C603.16 197.236 649.284 192.229 694.105 188.98C733.048 186.135 773.96 184.016 811.628 187.255C832.614 188.977 853.369 192.835 873.571 198.771C888.311 203.163 907.696 207.85 917.918 219.76C943.693 249.806 889.492 301.065 866.72 321.325Z" stroke="white" stroke-opacity="0.05" stroke-width="2" stroke-miterlimit="10"/>
<path d="M832.34 319.605C738.822 397.26 625.766 387.419 537.59 349.07C517.104 340.154 457.491 318.212 468.474 281.898C479.128 246.693 533.776 235.03 559.491 229.376C639.186 211.869 720.2 214.592 798.1 215.599C822.415 215.913 869.235 212.336 881.255 238.061C894.284 266.014 851.727 303.499 832.34 319.605Z" stroke="white" stroke-opacity="0.05" stroke-width="2" stroke-miterlimit="10"/>
<path d="M793.496 319.626C721.288 374.419 628.993 369.407 561.187 340.991C544.582 334.027 501.071 318.209 504.332 290.819C507.343 265.481 550.074 256.245 566.496 252.176C603.068 243.113 640.378 240.795 676.871 239.016C710.621 237.36 744.908 235.443 777.898 237.228C795.266 238.171 829.254 237.979 834.408 259.422C839.968 282.498 809.529 307.456 793.496 319.626Z" stroke="white" stroke-opacity="0.05" stroke-width="2" stroke-miterlimit="10"/>
<path d="M750.484 319.938C700.951 354.018 635.09 352.017 588.746 333.838C576.278 328.942 548.514 319.51 548.397 300.851C548.295 283.672 573.381 276.559 584.729 273.104C635.025 257.787 694.799 254.737 743.008 261.098C755.129 262.697 777.472 264.8 779.727 280.708C782.034 297.035 761.858 312.111 750.484 319.938Z" stroke="white" stroke-opacity="0.05" stroke-width="2" stroke-miterlimit="10"/>
<path d="M706.65 317.763C680.942 333.89 644.148 333.594 619.957 324.572C602.933 318.218 588.181 302.61 614.839 291.638C641.311 280.754 677.116 279.149 702.249 285.068C721.422 289.586 728.73 303.909 706.65 317.763Z" stroke="white" stroke-opacity="0.05" stroke-width="2" stroke-miterlimit="10"/>
</g>
<path d="M1236.5 45.5C1236.5 89.6686 1200.47 125.5 1156 125.5C1111.53 125.5 1075.5 89.6686 1075.5 45.5C1075.5 1.33144 1111.53 -34.5 1156 -34.5C1200.47 -34.5 1236.5 1.33144 1236.5 45.5Z" stroke="#22F9EC" stroke-opacity="0.1" stroke-width="5"/>
<path d="M502.5 560C502.5 635.931 440.724 697.5 364.5 697.5C288.276 697.5 226.5 635.931 226.5 560C226.5 484.069 288.276 422.5 364.5 422.5C440.724 422.5 502.5 484.069 502.5 560Z" stroke="#22F9EC" stroke-opacity="0.1" stroke-width="5"/>
<defs>
<filter id="filter0_d" x="0.172363" y="-583.054" width="1476.66" height="1476.66" filterUnits="userSpaceOnUse" color-interpolation-filters="sRGB">
<feFlood flood-opacity="0" result="BackgroundImageFix"/>
<feColorMatrix in="SourceAlpha" type="matrix" values="0 0 0 0 0 0 0 0 0 0 0 0 0 0 0 0 0 0 127 0"/>
<feOffset dy="10"/>
<feGaussianBlur stdDeviation="25"/>
<feColorMatrix type="matrix" values="0 0 0 0 0 0 0 0 0 0 0 0 0 0 0 0 0 0 0.25 0"/>
<feBlend mode="normal" in2="BackgroundImageFix" result="effect1_dropShadow"/>
<feBlend mode="normal" in="SourceGraphic" in2="effect1_dropShadow" result="shape"/>
</filter>
<linearGradient id="paint0_linear" x1="1076.63" y1="833.604" x2="1076.63" y2="1833.6" gradientUnits="userSpaceOnUse">
<stop stop-color="#680C5F"/>
<stop offset="1" stop-color="#24C0FC"/>
</linearGradient>
<linearGradient id="paint1_linear" x1="1076.63" y1="833.604" x2="1076.63" y2="1833.6" gradientUnits="userSpaceOnUse">
<stop stop-color="#680C5F"/>
<stop offset="1" stop-color="#24C0FC"/>
</linearGradient>
</defs>
</svg>