<?xml version="1.0" encoding="utf-8"?>
<!-- Generator: Adobe Illustrator 27.0.0, SVG Export Plug-In . SVG Version: 6.00 Build 0)  -->
<svg version="1.1" id="Слой_1" xmlns="http://www.w3.org/2000/svg" xmlns:xlink="http://www.w3.org/1999/xlink" x="0px" y="0px"
	 viewBox="0 0 394.99 173.86" style="enable-background:new 0 0 394.99 173.86;" xml:space="preserve">
<style type="text/css">
	.st0{fill:url(#SVGID_1_);}
	.st1{fill:url(#SVGID_00000173855053596481579360000011572582518947644072_);}
	.st2{fill:url(#SVGID_00000165193409797676819800000014757387050539486371_);}
	.st3{fill:url(#SVGID_00000168114130616877187620000013556010740139395476_);}
	.st4{fill:url(#SVGID_00000083079523075542343350000009159658686526048659_);}
	.st5{fill:url(#SVGID_00000053526219216656418090000004724978231639934610_);}
	.st6{fill:url(#SVGID_00000073719302091075811570000003752522245392819895_);}
	.st7{fill:url(#SVGID_00000088846641792103903000000011712542186202369190_);}
	.st8{fill:url(#SVGID_00000135650349300816936290000005237502858326620837_);}
	.st9{fill:url(#SVGID_00000082335710560489277270000007108305899110532481_);}
	.st10{fill:url(#SVGID_00000018235060538557743980000009471746867973436066_);}
	.st11{fill:url(#SVGID_00000129888690934134663220000018279908123728598695_);}
	.st12{fill:#A56497;}
	.st13{fill:#2EA2CD;}
	.st14{fill:url(#SVGID_00000011726841446165326660000013889486044532984706_);}
	.st15{fill:url(#SVGID_00000118384022716944291910000004121927336651451818_);}
	.st16{fill:url(#SVGID_00000110447836927111162360000011577991487125619638_);}
	.st17{fill:url(#SVGID_00000156583525441337355280000015925058836919457936_);}
	.st18{fill:url(#SVGID_00000080169674443688739670000006802936942665800375_);}
	.st19{fill:url(#SVGID_00000026886337999949373410000002748229077671011234_);}
	.st20{fill:url(#SVGID_00000155120497570778161000000017339957849773763222_);}
	.st21{fill:url(#SVGID_00000016769328114505320740000005575426640614748573_);}
	.st22{fill:url(#SVGID_00000175284327155845526260000004171360143542628506_);}
	.st23{fill:url(#SVGID_00000055676622043163696080000008003614650166709907_);}
	.st24{fill:url(#SVGID_00000009554746794735773410000012440274142654264244_);}
	.st25{fill:url(#SVGID_00000122001492863225968640000004031270131277315728_);}
	.st26{fill:url(#SVGID_00000076583209060361913290000017437110948953308310_);}
	.st27{fill:url(#SVGID_00000039820570774077908540000008689758637560658323_);}
	.st28{fill:url(#SVGID_00000011030304178025597990000002172455288970821290_);}
	.st29{fill:url(#SVGID_00000142890070232523261900000005875480278712164999_);}
	.st30{fill:url(#SVGID_00000159455009123260329780000014710868034299316645_);}
	.st31{fill:url(#SVGID_00000039104247804078326840000005011300709331062426_);}
	.st32{fill:url(#SVGID_00000074400852264275930180000002912289852340202922_);}
	.st33{fill:url(#SVGID_00000145764129530409606140000015681602450575975560_);}
	.st34{fill:url(#SVGID_00000175322558645123932810000012183232973252809919_);}
	.st35{fill:url(#SVGID_00000101092277740545023630000006274506164801296286_);}
	.st36{fill:url(#SVGID_00000168811341957485295670000012795856586888674945_);}
	.st37{fill:url(#SVGID_00000031903563687314556590000016105470346044002751_);}
	.st38{fill:url(#SVGID_00000121243812597546173620000001684959127893415074_);}
	.st39{fill:#061922;}
	.st40{fill:url(#SVGID_00000111150668265352820940000002014023739770962331_);}
	.st41{fill:url(#SVGID_00000108310270822705996090000010604059291174020031_);}
	.st42{fill:url(#SVGID_00000118362745558259399930000017351256251583197845_);}
	.st43{fill:url(#SVGID_00000052823927109345945710000001125662784936905371_);}
	.st44{fill:url(#SVGID_00000181799611848311099220000006095185607525559476_);}
	.st45{fill:url(#SVGID_00000178889178618000251680000017257126417517195166_);}
	.st46{fill:url(#SVGID_00000013155521998752819990000000910419074427220878_);}
	.st47{fill:url(#SVGID_00000055685429731894866430000017486456408710286001_);}
	.st48{fill:url(#SVGID_00000123433187970246761680000004631071532961845183_);}
	.st49{fill:url(#SVGID_00000119105080511120668220000007049884430361520277_);}
	.st50{fill:url(#SVGID_00000044159628552854250440000011158641525664704439_);}
	.st51{fill:url(#SVGID_00000112594847536639885100000016187400190074955669_);}
	.st52{opacity:0.48;fill:#A56497;}
	.st53{opacity:0.48;fill:#2EA2CD;}
	.st54{fill:#010202;}
	.st55{fill:#061922;stroke:#010202;stroke-width:0.5;stroke-miterlimit:10;}
	.st56{fill:url(#SVGID_00000023997082043617178310000012423520537081333180_);}
	.st57{fill:url(#SVGID_00000155838427754167736660000002639175626151640204_);}
	.st58{fill:url(#SVGID_00000139263676541126966310000007110493812118933939_);}
	.st59{fill:url(#SVGID_00000170249285051567039610000007271706460707783855_);}
	.st60{fill:url(#SVGID_00000093152419126554622090000014426744733549366159_);}
	.st61{fill:url(#SVGID_00000121243796854345406120000008057624296278678412_);}
	.st62{fill:url(#SVGID_00000065759024246871027170000002167101213471420319_);}
	.st63{fill:url(#SVGID_00000042700491034155379390000005945161270403106737_);}
	.st64{fill:url(#SVGID_00000055700104924296772740000001509156232651682188_);}
	.st65{fill:url(#SVGID_00000093899780533089413880000014906844812941609098_);}
	.st66{fill:url(#SVGID_00000106143895829779862460000004026763230631422081_);}
	.st67{fill:url(#SVGID_00000081638157654819880720000010334960029570813597_);}
	.st68{fill:url(#SVGID_00000119081098648416411030000009938490376732139678_);}
	.st69{fill:url(#SVGID_00000109720001518346504700000016006027836059672975_);}
	.st70{fill:url(#SVGID_00000091725719486089933160000015568263206620256165_);}
	.st71{fill:url(#SVGID_00000072258828122526887660000003839872453584817038_);}
	.st72{fill:url(#SVGID_00000125576686801505526760000007121248918801412773_);}
	.st73{fill:url(#SVGID_00000127756018087772835950000004547973869463164347_);}
	.st74{fill:url(#SVGID_00000173858704372491396570000006703907626876642740_);}
	.st75{fill:url(#SVGID_00000065076799943699015650000015098457180012290203_);}
	.st76{fill:url(#SVGID_00000114031251174840818390000012295306504960807856_);}
	.st77{fill:url(#SVGID_00000091004786439542411490000008163962639731289234_);}
	.st78{fill:url(#SVGID_00000136397441743543123040000009912509566202261912_);}
	.st79{fill:url(#SVGID_00000013182447661771479090000014298932441327792820_);}
	.st80{fill:url(#SVGID_00000038384532344229627710000015841416105914636478_);}
	.st81{fill:url(#SVGID_00000166660158071330455540000011683260243330694027_);}
	.st82{fill:url(#SVGID_00000098198677217256637020000014539870066491949476_);}
	.st83{fill:#FEF1EE;}
	
		.st84{fill:url(#SVGID_00000099622461158154184380000003667693245672768143_);stroke:url(#SVGID_00000123438345932693779880000001766848209254727606_);stroke-miterlimit:10;}
	.st85{fill:url(#SVGID_00000178888332032774088150000002167064963656223889_);}
	.st86{fill:url(#SVGID_00000047059117653679895580000006120313130916359316_);}
	.st87{fill:url(#SVGID_00000104666973645975552540000004481280217942302083_);}
	.st88{fill:url(#SVGID_00000170253196892247368750000017703237839821707659_);}
	.st89{fill:url(#SVGID_00000148621905092108496420000014554259256966273688_);}
	.st90{fill:url(#SVGID_00000058588127755318033520000008318906164488049323_);}
	.st91{fill:url(#SVGID_00000046340472127735844790000006037478568996144574_);}
	.st92{fill:url(#SVGID_00000113341081113580852560000011416591056003008703_);}
	.st93{fill:url(#SVGID_00000146486028830062700130000007542594246784561285_);}
	.st94{fill:url(#SVGID_00000037682143604950226640000007849812294930040992_);}
	.st95{fill:url(#SVGID_00000044891748535129179890000012299992347022753201_);}
	.st96{fill:url(#SVGID_00000004513523465907906840000008740720922234338968_);}
	.st97{fill:none;stroke:url(#SVGID_00000134210937321393703770000005156472645474677409_);stroke-width:2;stroke-miterlimit:10;}
	.st98{fill:#FFFFFF;}
	.st99{stroke:#131414;stroke-miterlimit:10;}
	.st100{fill:none;stroke:#000000;stroke-width:2;stroke-miterlimit:10;}
	.st101{fill:url(#SVGID_00000023968792640843105680000014171543239261623182_);}
	.st102{fill:url(#SVGID_00000013164027865814416190000006122156867871604132_);}
	.st103{fill:url(#SVGID_00000085233192741755266790000004941599885547553438_);}
	.st104{fill:url(#SVGID_00000029011063686535751690000013319198076917939588_);}
	.st105{fill:url(#SVGID_00000083067275962420449120000005482725411227652741_);}
	.st106{fill:url(#SVGID_00000163787992712751504370000002225828400543153824_);}
	.st107{fill:url(#SVGID_00000119099457854049817730000004481608030860626315_);}
	.st108{fill:url(#SVGID_00000042012948221079599680000003555678745109958284_);}
	.st109{fill:url(#SVGID_00000139256573415010858100000008961360646111787946_);}
	.st110{fill:url(#SVGID_00000032610546938840821840000001511072008542405269_);}
	.st111{fill:url(#SVGID_00000182496320165520924670000004329832296522345381_);}
	.st112{fill:url(#SVGID_00000173147747068144697950000015732164173918646177_);}
	.st113{fill:url(#SVGID_00000085968381485172007310000000575951870392586901_);}
	.st114{fill:url(#SVGID_00000052799909828473628160000016761390826760493503_);}
	.st115{fill:url(#SVGID_00000003801593392308526190000014995229312377491632_);}
	.st116{fill:url(#SVGID_00000002364100492514709740000013476372099750996882_);}
	.st117{fill:url(#SVGID_00000034795990443318990050000002343968588729530791_);}
	.st118{fill:url(#SVGID_00000065775537530577424160000008168734077419581850_);}
	.st119{fill:url(#SVGID_00000133498029649746762850000015826920857959894207_);}
	.st120{fill:url(#SVGID_00000076605931355621770850000008025158252698261910_);}
	.st121{fill:url(#SVGID_00000040537522022899912570000017449252792378689931_);}
	.st122{fill:url(#SVGID_00000078014178128708260390000017733668113441093016_);}
	.st123{fill:url(#SVGID_00000068640000136625859640000000878380319400917685_);}
	.st124{fill:url(#SVGID_00000041979941119828803440000009285766804276350628_);}
	.st125{fill:url(#SVGID_00000048476873429898276150000002941477652185442961_);}
	.st126{fill:url(#SVGID_00000029024155009311123510000015494865670466449581_);}
	.st127{fill:url(#SVGID_00000041275259133757200110000011627061469096397242_);}
	.st128{fill:url(#SVGID_00000097464464528780073390000010121233298148240030_);}
	.st129{fill:url(#SVGID_00000023271324393164619650000007569833454325946513_);}
	.st130{fill:url(#SVGID_00000038403767136401628100000009104383365896791487_);}
	.st131{fill:url(#SVGID_00000155117026726040992570000002761191689354035337_);}
	.st132{fill:url(#SVGID_00000160903837874417900000000017814358999953930122_);}
	.st133{fill:url(#SVGID_00000049189980851827084590000013068532922661338290_);}
	.st134{fill:url(#SVGID_00000159445328032436205370000011683347533176089518_);}
	.st135{fill:url(#SVGID_00000133531092278512187700000014637451837838051227_);}
	.st136{fill:url(#SVGID_00000155852182117077041530000003851272632964616615_);}
	.st137{fill:url(#SVGID_00000145020023899070846260000000589518140608629136_);}
	.st138{fill:url(#SVGID_00000150812036431340118490000009720161815791591568_);}
	.st139{fill:url(#SVGID_00000179610250086590058240000016926750918002532783_);}
	.st140{fill:url(#SVGID_00000060711408707058678210000001089246428238963119_);}
	.st141{fill:url(#SVGID_00000131346560956577597750000003708415006507677069_);}
	.st142{fill:url(#SVGID_00000041978237457164374400000012182510818470337725_);}
	.st143{fill:url(#SVGID_00000150102530800324473530000011891368704558969230_);}
	.st144{fill:url(#SVGID_00000182510541565002224440000014831861558048103067_);}
	.st145{fill:url(#SVGID_00000075150847747479275620000004859941082642529184_);}
	.st146{fill:url(#SVGID_00000139994559548905723260000016462256542091082370_);}
	.st147{fill:url(#SVGID_00000088855591439378669810000002844738023739093680_);}
	.st148{fill:url(#SVGID_00000158723953018188156690000012557536544926535316_);}
	.st149{fill:url(#SVGID_00000044172149276105469080000006441212134082896518_);}
	.st150{fill:url(#SVGID_00000027573540414970910420000002191274645256095638_);}
	.st151{fill:url(#SVGID_00000176022012311825886290000013781812548262966718_);}
	.st152{fill:url(#SVGID_00000083079059353559868500000011759436009144588460_);}
	.st153{fill:url(#SVGID_00000030488698503883809140000010547869956665412279_);}
	.st154{fill:url(#SVGID_00000050659543351636221840000015915331596117050287_);}
	.st155{fill:url(#SVGID_00000142881897325637817600000001619155781363870124_);}
	.st156{fill:url(#SVGID_00000020371389330062079370000016467536061779380891_);}
	.st157{fill:url(#SVGID_00000119110167957295306680000005491786952719766146_);}
	.st158{fill:url(#SVGID_00000007418490037234905260000002849268813827198083_);}
	.st159{fill:url(#SVGID_00000015350114215399014300000010869122772862512803_);}
	.st160{fill:url(#SVGID_00000062165226498829793910000017560903865273859263_);}
	.st161{fill:url(#SVGID_00000023256952902960945280000007989593849907472018_);}
	.st162{fill:url(#SVGID_00000039840341888756011320000010872134655932310403_);}
	.st163{fill:url(#SVGID_00000088093949364197828840000016660139859826294435_);}
	.st164{fill:url(#SVGID_00000021115896325052029200000000018335279542369470_);}
	.st165{fill:url(#SVGID_00000104672738668702625950000001871771800174010044_);}
	.st166{fill:url(#SVGID_00000087393924946094051380000016583142887174268562_);}
	.st167{fill:url(#SVGID_00000121992335029177406390000006318507939170176166_);}
	.st168{fill:url(#SVGID_00000100357145235739078020000011764980762793565836_);}
	.st169{fill:url(#SVGID_00000170274415317268976460000000282466802556565939_);}
	.st170{fill:url(#SVGID_00000134220823243424629820000002929123948621663913_);}
	.st171{fill:url(#SVGID_00000132808336642783102550000008906989768435584166_);}
	.st172{fill:url(#SVGID_00000082358546503573954320000000382957328025355434_);}
	.st173{fill:url(#SVGID_00000155865328327374025890000017426176526545975682_);}
	.st174{fill:url(#SVGID_00000127021515780386524400000006396618002128743559_);}
	.st175{fill:url(#SVGID_00000121988297539620996540000014737907940279989154_);}
	.st176{fill:url(#SVGID_00000179634594083119541640000008227099482911523738_);}
	.st177{fill:url(#SVGID_00000121260770741797813270000011326318990827054002_);}
	.st178{fill:url(#SVGID_00000129189287104010276910000013604451795605380482_);}
	.st179{fill:url(#SVGID_00000046331709840460997760000013948822729321810096_);}
	.st180{fill:url(#SVGID_00000043453960454195302510000002179251912716337069_);}
	.st181{fill:url(#SVGID_00000003794102176207792260000008117704524611470511_);}
	.st182{fill:url(#SVGID_00000024703096155087429210000005075767122786345397_);}
	.st183{fill:url(#SVGID_00000125602212416890015460000002863919535342904470_);}
	.st184{fill:url(#SVGID_00000083065207402584740210000018260062546716694181_);}
	.st185{fill:url(#SVGID_00000179631705545524195580000012353266586982033306_);}
	.st186{fill:url(#SVGID_00000021836708195420020340000014801395835117406112_);}
	.st187{fill:url(#SVGID_00000092439869938499750690000003694105071804233146_);}
	.st188{fill:url(#SVGID_00000045581400229332226620000016366721979161512592_);}
	.st189{fill:url(#SVGID_00000180365602240123843250000011720118425904100005_);}
	.st190{fill:url(#SVGID_00000145755702708912600790000003299356164955472298_);}
	.st191{fill:url(#SVGID_00000046313727772421381690000016448785786869204410_);}
	.st192{fill:url(#SVGID_00000062151847752394910960000014096637994473848723_);}
	.st193{fill:url(#SVGID_00000067208677614784495690000007173339209741689220_);}
	.st194{fill:url(#SVGID_00000066511479742971638400000007084984283144253571_);}
	.st195{fill:url(#SVGID_00000151515905516284957290000000816384228530343572_);}
	.st196{fill:url(#SVGID_00000109027378329564884830000017139429120373956747_);}
	.st197{fill:url(#SVGID_00000083769839993065482110000002644504168008948123_);}
	.st198{fill:url(#SVGID_00000165947306431270102020000009865853579628547982_);}
	.st199{fill:url(#SVGID_00000031911354609152416210000001206259046406119812_);}
	.st200{fill:url(#SVGID_00000007401345029753622670000012941284240449646465_);}
	.st201{fill:url(#SVGID_00000127028999192874070170000007412385412484024709_);}
	.st202{fill:url(#SVGID_00000031169426407329423760000016635036050642443160_);}
	.st203{fill:url(#SVGID_00000039853601925843323120000013903094439750782117_);}
	.st204{fill:url(#SVGID_00000179630583845513806530000015913680301088195201_);}
	.st205{fill:url(#SVGID_00000078033273795406418620000014325249519916127882_);}
	.st206{fill:url(#SVGID_00000145752314597341903910000010999086877058427052_);}
	.st207{fill:url(#SVGID_00000070804716807317213320000013588482360618474121_);}
	.st208{fill:url(#SVGID_00000069357414901530017020000011014228075513990071_);}
	.st209{fill:url(#SVGID_00000103948134784881538680000005646384969799793810_);}
	.st210{fill:url(#SVGID_00000170244492335314669540000015039123603329239693_);}
	.st211{fill:url(#SVGID_00000127722782285216227120000012396779869478916500_);}
	.st212{fill:url(#SVGID_00000062901092668415866950000016149437823224871090_);}
	.st213{fill:url(#SVGID_00000155833690698525652230000013771359135653860510_);}
	.st214{fill:url(#SVGID_00000129884178904805459160000017831550725191608252_);}
	.st215{fill:url(#SVGID_00000018948249257030244690000005712047349151283090_);}
	.st216{fill:url(#SVGID_00000183211811476791892850000017106988305160325303_);}
	.st217{fill:url(#SVGID_00000093885350191703418490000008886174545743868838_);}
	.st218{fill:url(#SVGID_00000018229376505104432490000008591101941263828404_);}
	.st219{fill:url(#SVGID_00000165232701480274776480000009303981452078398908_);}
	
		.st220{fill:url(#SVGID_00000028312004795925691800000006309961525020808066_);stroke:url(#SVGID_00000096760010989050009880000000119442936292583338_);stroke-miterlimit:10;}
	.st221{fill:url(#SVGID_00000070089076415476637690000013837075320690692510_);}
	.st222{fill:url(#SVGID_00000138566062960226296650000008841540089097592990_);}
	.st223{fill:url(#SVGID_00000169551270161992321310000000041496532837592204_);}
	.st224{fill:url(#SVGID_00000089573492060822659760000007432793976733963431_);}
	.st225{fill:url(#SVGID_00000061443815982014779460000010660777806830691756_);}
	.st226{fill:url(#SVGID_00000047054526545958845060000014295183783350672284_);}
	.st227{fill:url(#SVGID_00000062912261949632372220000014067915831077765764_);}
	.st228{fill:url(#SVGID_00000076598830019761430840000003353012897559952824_);}
	.st229{fill:url(#SVGID_00000103976464488464366480000003559360837988045194_);}
	.st230{fill:url(#SVGID_00000026842262143532555990000018174971525360731264_);}
	.st231{fill:url(#SVGID_00000008134268318876690340000016171038410016095659_);}
	.st232{fill:url(#SVGID_00000108294756851809731380000010293172626735034006_);}
	.st233{fill:none;stroke:url(#SVGID_00000007408585181178187830000012510053497963764650_);stroke-width:2;stroke-miterlimit:10;}
	.st234{fill:url(#SVGID_00000028285381553564449120000011246830026696151959_);}
	.st235{fill:url(#SVGID_00000157308652126340151750000006862147038676332928_);}
	.st236{fill:url(#SVGID_00000007419594204188433080000007772023885936565680_);}
	.st237{fill:url(#SVGID_00000148663521274130995910000018412098470970200992_);}
	.st238{fill:url(#SVGID_00000037684817541047320560000016345670843060686237_);}
	.st239{fill:url(#SVGID_00000107581636642625669510000017330090974778330781_);}
	.st240{fill:url(#SVGID_00000162328380035617981080000010714863447821559442_);}
	.st241{fill:url(#SVGID_00000135692259847265711250000004692602319939628702_);}
	.st242{fill:url(#SVGID_00000092437690758750185300000001996251257037334401_);}
	.st243{fill:url(#SVGID_00000119108026384902855290000009994352759353767565_);}
	.st244{fill:url(#SVGID_00000026154557883313887990000016770382725100192897_);}
	.st245{fill:url(#SVGID_00000126309992478138546740000011051873116857188027_);}
	.st246{fill:url(#SVGID_00000037689620983939677070000017385927322401328528_);}
	.st247{fill:url(#SVGID_00000001660153671897980290000012192747210197845898_);}
	.st248{fill:url(#SVGID_00000183213096491559040840000015277061461059759497_);}
	.st249{fill:url(#SVGID_00000080923769512339586830000006965214597578817711_);}
	.st250{fill:url(#SVGID_00000098191616996775589500000001389601005404720265_);}
	.st251{fill:url(#SVGID_00000136413050127507275980000002658898182273732778_);}
	.st252{fill:url(#SVGID_00000111893678557413290200000009689643777014565770_);}
	.st253{fill:url(#SVGID_00000144311755490573116890000018132087704642539198_);}
	.st254{fill:url(#SVGID_00000178904684413450656110000005295790606561364403_);}
	.st255{fill:url(#SVGID_00000093159088232483799870000012797868690708749237_);}
	.st256{fill:url(#SVGID_00000106111348080498734290000014162137370587489705_);}
	.st257{fill:url(#SVGID_00000106118162832536919680000006432713638720072595_);}
	.st258{fill:url(#SVGID_00000161600625329204914610000015448795105955393720_);}
	.st259{fill:url(#SVGID_00000109711942885927292330000003923085047289816964_);}
	.st260{fill:url(#SVGID_00000171700259721424586500000011289630310207282567_);}
	.st261{fill:url(#SVGID_00000118387684763953107470000017217750985442145469_);}
	.st262{fill:url(#SVGID_00000100364847983544938470000002435464353798403257_);}
	.st263{fill:url(#SVGID_00000158002619353352819470000007526776234892209816_);}
	.st264{fill:url(#SVGID_00000021824917720185213430000004090073359695180160_);}
	.st265{fill:url(#SVGID_00000163071565178983084750000016102873396200686486_);}
	.st266{fill:url(#SVGID_00000108296293130341387530000017711204648410632091_);}
	.st267{fill:url(#SVGID_00000125581537547345511560000017914761601812802432_);}
	.st268{fill:url(#SVGID_00000173851937303884465910000011689189543108525474_);}
	.st269{fill:url(#SVGID_00000039112581225220834990000017409027710269053359_);}
	.st270{fill:url(#SVGID_00000123421871794955649610000018310168676552106407_);}
	.st271{fill:url(#SVGID_00000155851401525709289160000017725278303005586059_);}
	.st272{fill:url(#SVGID_00000149373567711456310490000014869218016025217970_);}
	.st273{fill:url(#SVGID_00000150816912480066674920000017034049043988125060_);}
	.st274{fill:url(#SVGID_00000015354804001129009880000006217930430445163175_);}
	.st275{fill:url(#SVGID_00000016757243639035735830000016504752182176783233_);}
	.st276{fill:url(#SVGID_00000165221599379887256910000006042307634177099156_);}
</style>
<g>
	<path class="st39" d="M140.86,63.93c0-14.41,9.71-24.02,24.28-24.02c14.49,0,24.15,9.61,24.15,24.02
		c0,14.45-9.66,24.08-24.15,24.08C150.57,88.01,140.86,78.38,140.86,63.93z M183.59,65.17c0-15.65-6.55-24.08-18.72-24.08
		c-11.91,0-18.32,7.58-18.32,21.66c0,15.65,6.57,24.08,18.78,24.08C177.2,86.83,183.59,79.25,183.59,65.17z"/>
	<path class="st39" d="M200.67,40.43h17.93h10.93v0.59h-2.36c-3.14,0-3.47,0.92-3.47,4.06v37.76c0,3.14,0.33,4.06,3.47,4.06h2.36
		v0.59h-16.16V86.9h1.77c3.14,0,3.47-0.92,3.47-4.06V41.61h-15.31v15.97c0,17.47-4.97,28.62-9.38,32.28l-3.82-4.4
		c4.8-4.17,11.43-13.29,11.5-26.31V45.87c0-4.58-0.52-4.84-5.1-4.84h-1.44v-0.59H200.67z"/>
	<path class="st39" d="M231.82,86.9h2.29c3.14,0,3.47-0.92,3.47-4.06V45.08c0-3.14-0.33-4.06-3.47-4.06h-2.29v-0.59h16.1v0.59h-1.7
		c-3.14,0-3.53,0.92-3.53,4.06v37.95l18.58-42.6h10.27v0.59h-2.36c-3.14,0-3.47,0.92-3.47,4.06v37.76c0,3.14,0.33,4.06,3.47,4.06
		h2.36v0.59h-16.16V86.9h1.77c3.14,0,3.47-0.92,3.47-4.06V44.88l-18.58,42.6h-10.21V86.9z"/>
	<path class="st39" d="M273.24,86.9h1.05c3.34,0,3.86-0.98,4.06-4.65l1.77-37.76c0.03-0.52,0.06-0.98,0.06-1.38
		c0-1.48-0.45-2.09-3.27-2.09h-2.62v-0.59h9.62l16.95,37.5c0.59,1.31,0.98,2.42,0.98,2.81h0.33c0-0.39,0.46-1.83,0.92-2.81
		l16.95-37.5h9.82v0.59h-2.22c-3.18,0-3.66,0.97-3.66,2.88c0,0.52,0.04,1.11,0.06,1.77l1.51,36.58c0.13,3.73,0.59,4.65,4.19,4.65
		h1.44v0.59h-17.08V86.9h2.36c3.6,0,4.03-0.96,4.03-2.51c0-0.35-0.02-0.74-0.03-1.15l-1.31-34.49c-0.07-1.18-0.07-2.16-0.07-2.88
		h-0.39c0,0.2-0.46,1.31-1.05,2.68L300,87.74l-0.2,0.46h-0.13l-0.2-0.46l-17.34-38.48c-0.59-1.31-0.72-2.55-0.72-2.75h-0.26
		c0,0.59,0,1.05-0.07,2.22l-1.64,34.35c-0.03,0.56-0.07,1.05-0.07,1.48c0,1.59,0.53,2.31,4.12,2.31h2.36v0.59h-12.63V86.9z"/>
	<path class="st39" d="M332.86,86.9h2.29c3.14,0,3.47-0.92,3.47-4.06V45.08c0-3.14-0.33-4.06-3.47-4.06h-2.29v-0.59h39.72v0.59
		h-2.36c-3.14,0-3.47,0.92-3.47,4.06v37.76c0,3.14,0.33,4.06,3.47,4.06h2.36v0.59h-16.16V86.9h1.77c3.14,0,3.47-0.92,3.47-4.06
		V41.61h-17.93v41.23c0,3.14,0.39,4.06,3.53,4.06h1.7v0.59h-16.1V86.9z"/>
	<path class="st39" d="M141.86,128.81h1.85c2.49,0,2.75-0.31,2.75-3.25V94.88c0-2.51-0.24-2.78-2.75-2.78h-1.83v-0.47h11.99v0.47
		h-0.47c-2.51,0-2.85,0.26-2.85,2.78v11.78c1.88,0,2.92-0.11,3.42-0.73l8.28-10.42c0.65-0.82,0.93-1.47,0.93-1.98
		c0-0.99-1.1-1.43-2.71-1.43h-0.47v-0.47h11.57v0.47h-0.63c-2.33,0-5.5,0.84-7.7,3.61l-8.32,10.52l0.05,0.21
		c8.32,1.91,9.33,8.64,10.08,14.71c0.5,4.11,0.93,7.43,4.03,7.43c0.71,0,1.53-0.3,2.48-1.03l0.68-0.54l0.29,0.37l-0.66,0.52
		c-1.47,1.32-2.91,1.95-4.25,1.95c-5.04,0-5.96-4.97-6.9-10.27c-1.08-6.13-2.22-12.46-9.53-12.46h-0.65v18.43
		c0,2.93,0.33,3.25,2.85,3.25h1.83v0.47h-13.37V128.81z"/>
	<path class="st39" d="M172.53,128.81h1.83c2.51,0,2.78-0.26,2.78-2.78V94.88c0-2.51-0.26-2.78-2.78-2.78h-1.83v-0.47h13.19
		c7.88,0,13.14,4.61,13.14,11.52c0,6.88-5.26,11.46-13.14,11.46h-4.5v11.41c0,2.51,0.31,2.78,2.83,2.78h1.31v0.47h-12.83V128.81z
		 M180.34,92.89c0.63,0.84,0.89,2.04,0.89,3.25v17.54h2.93c6.6,0,10.16-3.68,10.16-10.52s-3.55-10.52-10.16-10.52h-3.82V92.89z"/>
	<path class="st39" d="M219.65,99.02c0-4.49-2.16-6.86-6.18-6.86c-5.18,0-7.92,3.05-8.12,7.11l-0.16,3.25l-0.94,0.01l0.58-12.36
		h0.52l-0.16,2.77c-0.05,0.73-0.1,1.31-0.21,1.68l0.37,0.1c0.05-0.16,0.47-0.94,0.84-1.2c1.62-1.2,4.08-2.3,7.23-2.3
		c6.77,0,10.31,2.97,10.31,8.48v25.86c0,2.09,0.16,2.67,1.73,2.67c0.31,0,1.05-0.05,1.05-0.05l0.89-0.05l0.03,0.47
		c-2.54,0.26-4.19,0.68-5.68,1.15v-0.42c0-1.3-0.26-3.08-0.55-4.71c-0.23-1.33-0.42-2.58-0.44-3.4h-0.52
		c-1.57,6.28-5.03,8.48-8.8,8.48c-5.65,0-9.89-3.43-9.89-8.59c0-6.53,5.61-10.89,14.03-10.89h4.08V99.02z M215.83,111.16
		c-5.84,0-9.74,3.98-9.74,9.95c0,4.3,2.39,7.17,5.97,7.17c3.66,0,7.59-3.35,7.59-10.84v-6.28H215.83z"/>
	<path class="st39" d="M248.45,91.22c3.51,0,6.93,1.08,9.58,3.35c0.26,0.26,0.47,0.68,0.58,1.05l0.37-0.1
		c-0.1-0.42-0.14-0.99-0.16-1.52l-0.1-3.81l0.47-0.01l0.47,15.13l-0.94,0.03l-0.16-4.85c-0.26-4.71-5.34-8.38-10.52-8.38
		c-8.58,0-13.2,6.08-13.2,17.38c0,12.52,4.82,19.27,13.77,19.27c4.97,0,9.82-2.74,11.63-7.15l0.88,0.34
		c-2.04,5.22-7.12,7.75-12.62,7.75c-10.99,0-18.32-7.75-18.32-19.37C230.18,98.86,237.49,91.22,248.45,91.22z"/>
	<path class="st39" d="M264.1,110.43c0-11.53,7.77-19.21,19.42-19.21c11.59,0,19.32,7.69,19.32,19.21
		c0,11.56-7.73,19.27-19.32,19.27C271.87,129.7,264.1,121.99,264.1,110.43z M298.29,111.42c0-12.52-5.24-19.27-14.97-19.27
		c-9.53,0-14.66,6.07-14.66,17.33c0,12.52,5.26,19.27,15.03,19.27C293.18,128.75,298.29,122.69,298.29,111.42z"/>
	<path class="st39" d="M309.81,128.81h3.98c2.51,0,2.78-0.26,2.78-2.78V92.58h-3.14c-5.03,0-6.81,0.99-7.07,6.02l-0.16,2.16
		l-0.94-0.06l0.79-12.15l0.58,0.03l-0.26,3.06h24.4l-0.26-3l0.58-0.03l0.79,12.09l-0.94,0.06l-0.16-2.16
		c-0.37-5.03-2.04-6.02-7.07-6.02h-3.04v33.45c0,2.51,0.26,2.78,2.78,2.78h3.87v0.47h-17.49V128.81z"/>
	<path class="st39" d="M333.58,128.75h1.83c2.51,0,2.78-0.26,2.78-2.77V94.83c0-2.51-0.26-2.72-2.78-2.72h-1.83v-0.47h13.35v0.47
		h-1.83c-2.51,0-2.83,0.31-2.83,2.83v14.97h3.98c8.01,0,13.35,3.87,13.35,9.68c0,5.81-5.34,9.69-13.35,9.69h-12.67V128.75z
		 M342.27,125.56c0,1.2-0.26,2.04-0.89,2.67v0.1h3.87c6.36,0,9.79-3.06,9.79-8.74c0-5.72-3.43-8.79-9.79-8.79h-2.98V125.56z
		 M360.22,128.81h1.83c2.51,0,2.78-0.21,2.78-2.72V94.83c0-2.51-0.26-2.72-2.78-2.72h-1.83v-0.47h13.35v0.58h-1.83
		c-2.51,0-2.83,0.21-2.83,2.72v31.15c0,2.51,0.31,2.72,2.83,2.72h1.83v0.47h-13.35V128.81z"/>
</g>
<g>
	<g>
		<path class="st52" d="M144.14,68.04c-3.41-1.53-6.97-2.69-10.52-3.85c-5.56-1.81-11.54-3.56-17.44-2.56
			c-1.42,0.24-2.8,0.66-4.12,1.25c-1.5,0.67-2.89,1.65-3.33,3.31c-0.37,1.36-0.07,2.82,0.36,4.13c0.54,1.65,1.27,3.25,1.96,4.83
			c0.76,1.73,1.55,3.45,2.38,5.16c2.75,6.41,6.01,12.61,9.74,18.51c1.95,3.08,4.08,6.29,7.3,8.17c2.78,1.62,5.98,1.97,8.92,0.58
			c1.61-0.76,3.08-1.86,4.44-2.99c1.38-1.15,2.66-2.44,3.82-3.82c2.33-2.77,4.21-5.89,5.67-9.19c1.28-2.89,2.35-5.98,2.43-9.17
			c0.08-3.24-1.08-6.23-3.22-8.65C150.27,71.19,147.22,69.42,144.14,68.04z"/>
		<path class="st53" d="M88.22,69.77c-4.72-1.99-9.81-3.33-14.96-3.31c-5.35,0.02-10.42,1.69-14.48,5.22
			c-2.41,2.09-4.38,4.62-6.22,7.21c-1.86,2.62-3.69,5.28-5.41,8c-2.97,4.7-5.26,9.72-6.56,15.14c-1.57,6.56-1.79,13.37-0.99,20.06
			c0.02,2.18,0.16,4.36,0.43,6.51c0.68,5.56,2.24,11.21,5.53,15.82c3.52,4.94,8.86,8.1,14.5,10.07c4.67,1.63,9.63,2.4,14.57,2.36
			c9.91-0.08,19.78-3.4,27.57-9.54c7.91-6.24,13.23-15.41,15.33-25.21c2.17-10.19,0.79-20.87-4.19-30.05
			C107.88,82.05,98.7,74.17,88.22,69.77z"/>
		<g>
			<g>
				<path class="st39" d="M105.03,57.09c-7.19-3.72-14.86-6.22-22.64-8.37c-3.86-1.07-7.77-2.17-11.32-4.07
					c-3.6-1.92-6.48-4.67-8.45-8.26c-1.87-3.4-2.9-7.18-3.73-10.95c-0.09-0.43-0.63-0.37-0.79-0.07c-2.33,1.06-4.41,2.62-6.25,4.38
					c-1.92,1.84-3.57,3.96-4.91,6.25c-1.32,2.27-2.34,4.74-2.98,7.29c-0.7,2.78-0.87,5.62-0.77,8.48c0.1,2.96,0.39,5.9,0.41,8.86
					c0.03,2.8-0.09,5.6-0.45,8.38c-0.7,5.43-2.31,10.82-5.45,15.36c-0.4,0.58-0.84,1.14-1.27,1.69c-0.36,0.46-0.73,0.98-0.76,1.59
					c-0.04,0.64,0.3,1.19,0.69,1.66c0.46,0.56,0.99,1.07,1.52,1.55c2.23,2.05,4.83,3.67,7.65,4.77c0.59,0.23,1.19,0.43,1.8,0.62
					c0.04,2.59-1.11,5.07-3.11,6.73c-0.19,0.16-0.14,0.45,0.01,0.61c1.25,1.41,2.73,2.59,4.36,3.53c-0.52,0.38-1.17,0.61-1.68,1.02
					c-0.53,0.42-0.89,1.01-1.1,1.65c-0.45,1.41-0.09,2.99,0.79,4.15c1.08,1.44,2.7,2.27,4.34,2.9c1.52,0.59,3.1,1.14,3.95,2.64
					c0.07,0.13,0.13,0.26,0.19,0.39c-0.07,0.07-0.1,0.17-0.03,0.26c0.15,0.2,0.26,0.42,0.35,0.63c0.28,1.12,0.22,2.33-0.22,3.4
					c-0.07,0.17,0.06,0.3,0.2,0.29c-0.16,1.29-0.2,2.64,0.57,3.77c1.91,2.83,6.28,2.43,9.17,1.98c7.73-1.2,15.5-3.33,22.14-7.59
					c5.94-3.82,10.91-9.51,13.05-16.31c0.24-0.75,0.42-1.5,0.57-2.26c1.44-0.16,2.86-0.57,4.13-1.24
					c1.79,6.42,6.04,11.71,10.35,16.69c1.51,1.75,3.03,3.49,4.48,5.29c-0.25,0.29-0.49,0.58-0.74,0.87
					c-2.54,2.92-5.22,5.72-7.5,8.85c-2.13,2.92-3.95,6.19-4.64,9.77c-0.59,3.08-0.44,6.37,0.76,9.29c1.14,2.77,3.28,5.04,6.1,6.11
					c2.78,1.06,5.97,0.94,8.66-0.31c6.25-2.9,7.39-10.77,6.45-16.86c-0.57-3.72-1.79-7.35-3.53-10.68c-1.3-2.49-2.91-4.78-4.65-6.98
					c4.04-4.77,7.75-9.86,10.08-15.69c2.55-6.39,3.02-13.3,1.49-20c-1.5-6.57-4.74-12.7-9.02-17.88
					C118.36,65.3,111.91,60.65,105.03,57.09z M123.41,129.75c2.18,3.46,3.74,7.29,4.57,11.29c1.37,6.58,0.54,15.87-7.03,18.24
					c-3.21,1-6.93,0.46-9.55-1.7c-2.68-2.21-3.94-5.65-4.08-9.05c-0.35-8.1,5.27-14.46,10.33-20.12c0.89-0.99,1.77-2,2.65-3.01
					C121.4,126.8,122.46,128.24,123.41,129.75z M126.82,77.57c3.34,5.63,5.48,12.05,5.64,18.62c0.19,7.37-2.43,14.29-6.39,20.41
					c-1.74,2.69-3.71,5.23-5.78,7.68c-0.67-0.83-1.35-1.65-2.04-2.45c-4.76-5.58-9.94-11.05-12.25-18.17
					c-0.13-0.39-0.24-0.78-0.35-1.18c0.98-0.61,1.86-1.38,2.57-2.33c1.74-2.32,2.49-5.53,1.53-8.32c-0.36-1.04-1.1-2.81-2.47-2.63
					c-1.32,0.17-1.96,1.71-2.32,2.81c-0.99,3.01-0.99,6.24-0.34,9.32c0.05,0.25,0.12,0.49,0.18,0.74c-1.17,0.63-2.45,1.01-3.77,1.18
					c1.05-6.3-0.48-12.89-3.13-18.65c-1.63-3.55-3.97-6.98-7.32-9.11c-2.57-1.63-6.16-2.34-8.57-0.05
					c-2.28,2.16-2.97,5.67-2.65,8.67c0.34,3.09,1.59,6.03,3.22,8.65c3.71,5.96,9.89,11.7,17.36,11.4c0,0,0.01,0,0.01,0
					c-0.07,0.3-0.13,0.61-0.21,0.91c-0.91,3.42-2.59,6.61-4.76,9.4c-4.58,5.87-11.09,9.74-18.08,12.1
					c-3.6,1.21-7.32,2.06-11.07,2.68c-1.87,0.31-3.75,0.62-5.65,0.39c-1.63-0.2-3.43-0.82-4.05-2.49c-0.45-1.22-0.16-2.55-0.03-3.85
					c0.76-2.2-0.24-4.8-2.23-6.07c-1.47-0.93-3.23-1.28-4.71-2.19c-1.41-0.87-2.59-2.2-2.59-3.93c0-0.76,0.24-1.55,0.81-2.08
					c0.68-0.65,1.63-0.88,2.25-1.61c0.18-0.21,0.17-0.55-0.1-0.69c-1.65-0.87-3.12-2.01-4.39-3.37c2.03-1.86,3.15-4.6,3.01-7.35
					c-0.01-0.19-0.13-0.34-0.31-0.39c-2.87-0.83-5.59-2.19-7.95-4.03c-0.59-0.46-1.15-0.94-1.7-1.45c-0.5-0.47-1.05-0.95-1.46-1.51
					c-0.47-0.64-0.36-1.24,0.09-1.86c0.39-0.54,0.82-1.04,1.21-1.58c3.08-4.29,4.79-9.4,5.61-14.58c0.86-5.45,0.71-10.92,0.37-16.41
					c-0.18-2.91-0.29-5.83,0.19-8.72c0.43-2.56,1.24-5.06,2.38-7.39c2.3-4.7,5.85-8.59,10.24-11.42c0.42-0.27,0.84-0.53,1.26-0.79
					c0.82,3.7,1.88,7.4,3.69,10.75c1.77,3.27,4.29,5.97,7.45,7.92c3.19,1.97,6.79,3.18,10.37,4.22c3.74,1.08,7.51,2.05,11.2,3.27
					C104.97,56.69,119,64.38,126.82,77.57z M105.45,101.67c-0.57-2.42-0.75-4.94-0.31-7.39c0.24-1.32,0.55-3.15,1.63-4.05
					c1.49-1.25,2.41,2.01,2.57,3.04c0.45,3.05-0.99,6.33-3.47,8.13C105.73,101.48,105.59,101.58,105.45,101.67z M96.33,102.98
					c-3.79-0.88-7.01-3.32-9.59-6.15c-2.25-2.47-4.21-5.3-5.43-8.42c-1.07-2.76-1.62-5.85-0.77-8.75c0.5-1.7,1.49-3.55,3.14-4.37
					c1.44-0.72,3.15-0.52,4.62,0.03c3.64,1.36,6.28,4.79,8.04,8.11c1.78,3.34,3.03,7.06,3.7,10.79c0.55,3.01,0.62,6.1,0.08,9.1
					C98.84,103.39,97.56,103.27,96.33,102.98z"/>
				<g>
					<path class="st54" d="M105.03,57.09c-6.77-3.49-14.03-5.91-21.35-7.95c-12.96-3.24-20.98-7.01-24.28-20.97
						c0,0-0.45-1.85-0.45-1.85l-0.21-0.9c-0.07-0.23-0.47-0.17-0.54,0.06c-9.55,4.65-15.41,15.47-14.81,25.98
						c0.71,10.47,1.16,21.67-4.24,31.14c-0.81,1.53-2.05,2.96-2.98,4.36c-0.42,0.7-0.2,1.48,0.36,2.12
						c2.91,3.23,6.72,5.65,10.9,6.89c0,0,0.23,0.07,0.23,0.07c0.1,2.5-0.88,5.02-2.69,6.76c-0.18,0.16-0.36,0.35-0.51,0.47
						c-0.01,0,0,0.08,0.03,0.12l0.27,0.29c1.29,1.39,2.84,2.53,4.5,3.44c-0.73,0.61-1.83,0.99-2.37,1.57
						c-1.54,1.67-0.94,4.41,0.72,5.83c2.19,2.26,6.45,2.05,7.85,5.22c0,0-0.07,0.44-0.07,0.44c0.01,0,0.07-0.11,0.02-0.22
						c-0.04-0.07,0.02,0.04,0.03,0.06l0.07,0.13c0.72,1.16,0.56,2.92,0.09,4.15c-0.06,0.15,0.02-0.02-0.03-0.09
						c-0.04-0.09-0.12-0.13-0.21-0.12l0.44,0.46c-0.16,1.22-0.16,2.47,0.47,3.42c2.35,3.14,6.79,2.11,10.23,1.61
						c4.98-0.87,9.91-2.13,14.52-4.15c9.21-3.93,17.51-11.67,19.5-21.76c1.68-0.14,3.32-0.64,4.79-1.47
						c2.26,8.79,9.25,15.56,14.85,22.39c0,0,0.21,0.24,0.21,0.24l-0.21,0.25c-4.75,5.62-10.59,10.89-12.59,18.18
						c-2.06,7,1.06,16.17,9.21,16.83c3.63,0.37,7.48-1.18,9.57-4.22c6.13-9.5,0.85-22.88-5.7-30.87c0,0-0.09-0.12-0.09-0.12
						l0.1-0.12c4.44-5.21,8.54-10.89,10.75-17.42C138.36,86.59,123.26,65.93,105.03,57.09L105.03,57.09z M105.03,57.09
						c18.33,8.79,33.54,29.48,26.59,50.33c-2.2,6.59-6.3,12.32-10.73,17.57l0-0.23c4.75,5.81,8.16,12.95,8.53,20.54
						c0.32,5.52-1.56,12.14-7.11,14.46c-11.12,4.25-18.29-6.52-15.43-16.68c2-7.46,7.87-12.82,12.65-18.52c0,0-0.01,0.49-0.01,0.49
						c-5.61-6.77-12.5-13.42-14.96-22.1c0,0,0.64,0.28,0.64,0.28c-1.34,0.7-2.8,1.12-4.28,1.29l0.4-0.36
						c-3.44,16.02-19.78,24.07-34.7,26.28c-4.87,1.05-12.81,1.19-11.65-6c0,0,0.44,0.46,0.44,0.46c-0.24,0.02-0.49-0.11-0.6-0.35
						c-0.13-0.22,0.02-0.56,0.02-0.56c0.17-0.42,0.27-0.85,0.32-1.3c0.06-0.49-0.02-1.45-0.11-1.74c0,0-0.21-0.38-0.21-0.38
						l-0.05-0.1c-0.21-0.28-0.19-0.64,0.02-0.84c0,0-0.07,0.44-0.07,0.44c-0.56-1.37-1.95-2.09-3.41-2.63
						c-1.47-0.55-3.01-1.22-4.23-2.37c-1.9-1.63-2.59-4.92-0.73-6.88c0.63-0.67,1.47-0.91,2.03-1.33l0.03,0.59
						c-1.68-0.97-3.21-2.2-4.48-3.67c-0.29-0.42-0.2-0.9,0.25-1.19c1.81-1.55,2.86-3.93,2.83-6.31l0.23,0.31
						c-3.42-1.04-6.61-2.84-9.27-5.22c-0.92-1-2.19-1.81-2.56-3.21c-0.11-0.51,0.02-1.05,0.25-1.47c1.01-1.54,2.15-2.76,3-4.37
						c3.5-6.11,4.63-13.29,4.7-20.28c0.09-7.01-1.46-14.29,1.09-21.07c2.35-6.66,7.15-12.65,13.58-15.72c0,0-0.06,0.06-0.06,0.06
						c0.1-0.19,0.3-0.3,0.5-0.31c0.66-0.02,0.58,0.83,0.73,1.26c0,0,0.44,1.85,0.44,1.85C62.85,42,70.9,45.77,83.71,49.04
						C91.03,51.12,98.28,53.57,105.03,57.09L105.03,57.09z"/>
					<path class="st54" d="M123.41,129.75c3.58,5.72,5.82,12.53,5.17,19.34c-0.56,7.67-6.96,13.07-14.6,10.49
						c-7.06-2.52-8.47-11.75-5.84-17.96c1.25-3.21,3.23-6.05,5.4-8.65c2.2-2.61,4.54-5.08,6.77-7.64
						C121.41,126.77,122.46,128.23,123.41,129.75L123.41,129.75z M123.41,129.75c-0.88-1.48-2.21-3.04-3.08-4.33
						c-2.19,2.58-4.5,5.06-6.57,7.74c-3.06,3.94-5.76,8.48-5.99,13.55c-0.37,4.8,1.75,10.24,6.54,11.97
						c7.06,2.49,13.09-2.55,13.82-9.64C129.05,142.33,126.9,135.47,123.41,129.75L123.41,129.75z"/>
					<path class="st54" d="M126.82,77.57c10.08,17.03,5.99,32.61-6.53,46.88c-5.55-6.83-12.4-13.19-14.81-21.94
						c0,0-0.03-0.12-0.03-0.12l0.11-0.06c3.71-2.22,5.56-7.32,3.67-11.3c-0.9-2.21-2.73-2.13-3.67-0.01
						c-1.47,3.43-1.44,7.38-0.54,10.97c0,0,0.04,0.17,0.04,0.17c-1.33,0.75-2.82,1.18-4.33,1.35c1.53-9.03-2.23-21.73-9.7-27.36
						c-2.49-1.85-6.44-2.85-8.86-0.44c-8.61,9.54,6.43,29.06,17.75,28.01c0,0,0.53-0.02,0.53-0.02l-0.11,0.53
						c-2.2,10.03-10.54,17.54-19.71,21.39c-4.62,1.98-9.5,3.21-14.42,4.02c-5.36,1.06-12.31,1.09-10.55-6.54
						c0.72-2.04-0.3-4.53-2.18-5.63c-2.01-1.17-4.68-1.57-6.25-3.56c-1.28-1.43-1.61-4.08,0.05-5.41c0.7-0.57,1.55-0.82,2.04-1.42
						c0.01-0.03,0.01-0.05,0.01-0.04c0,0,0.01,0.01,0,0c-1.68-0.89-3.2-2.07-4.49-3.46c0,0-0.27-0.29-0.27-0.29l0.29-0.27
						c1.94-1.77,3.03-4.42,2.9-7.04c0-0.02-0.01-0.03-0.02-0.03l-0.59-0.18c-3.49-1.09-6.66-3.02-9.32-5.52
						c-0.7-0.75-1.68-1.32-1.75-2.52c0.04-1.04,1.04-1.83,1.54-2.61c6.28-8.61,6.8-19.8,6.17-30.08c-0.24-3.8-0.43-7.72,0.54-11.49
						c1.79-7.54,6.97-14.05,13.65-17.89c0,0,0.24-0.14,0.24-0.14l0.06,0.26c2.71,13.39,8.48,19.43,21.62,22.89
						C97.71,53.38,117.08,60.92,126.82,77.57L126.82,77.57z M126.82,77.57c-7.82-13.15-21.97-20.88-36.13-25.5
						c-6.33-2.02-15.67-3.88-21.36-7.32c-6.8-3.86-9.92-11.55-11.43-18.86c0,0,0.29,0.12,0.29,0.12
						c-6.58,3.82-11.64,10.23-13.37,17.67c-1.7,7.48,0.41,15.24-0.41,22.84c-0.51,7.16-2.5,14.49-7.1,20.14
						c-0.66,0.76-0.72,1.36,0.01,2.09c0.96,1.01,2.08,1.93,3.17,2.8c2.3,1.74,4.93,2.9,7.66,3.76c0.19,0.12,0.33,0.33,0.36,0.55
						c0.2,2.88-0.99,5.79-3.11,7.75l0.02-0.56c1.24,1.33,2.7,2.45,4.31,3.29c0.66,0.37,0.45,1.2-0.06,1.57
						c-0.98,0.86-2.39,1.11-2.62,2.51c-0.57,3.98,4.16,4.82,6.89,6.3c2.25,1.18,3.43,4.58,2.61,6.59c-1.57,6.83,4.72,6.24,9.5,5.37
						c4.86-0.84,9.68-2.02,14.21-3.94c4.51-1.92,8.76-4.57,12.17-8.09c3.42-3.48,6.05-7.83,7.1-12.61l0.42,0.5
						c-10.9,0.65-23.06-14.24-20.69-24.77c1.39-6.33,7.13-7.84,12.12-4.14c7.51,5.63,11.35,18.56,9.87,27.62
						c0,0-0.27-0.28-0.27-0.28c1.29-0.16,2.55-0.53,3.69-1.15l-0.12,0.26c-0.62-2.46-0.81-5.05-0.43-7.58
						c0.37-2.02,1.3-6.71,4.27-5.24c3.78,3.82,1.67,10.82-2.68,13.33c0,0,0.07-0.19,0.07-0.19c2.34,8.67,9.1,15,14.57,21.78
						c0,0-0.17,0-0.17,0c2.74-3.24,5.33-6.62,7.41-10.33C134.46,102.33,133.66,88.93,126.82,77.57L126.82,77.57z"/>
					<path class="st54" d="M105.45,101.67c-0.71-2.12-1-4.37-0.82-6.61c0.21-1.69,0.36-3.55,1.54-4.93c0.44-0.58,1.48-0.95,2.1-0.37
						C111.49,93.35,109.52,99.61,105.45,101.67L105.45,101.67z M105.45,101.67c2.94-2.27,4.41-6.48,2.95-9.96
						c-0.24-0.51-0.54-1.3-1.06-1.25c-0.57,0.24-0.93,0.97-1.18,1.58C105.08,95.1,104.97,98.42,105.45,101.67L105.45,101.67z"/>
					<path class="st54" d="M96.33,102.98c-8.88-2-19.74-15.62-15.71-24.83c2.36-5.74,8.46-4.16,12.02-0.53
						c2.26,2.19,3.79,4.95,5,7.77c2.33,5.63,3.61,11.89,2.51,17.94C98.91,103.45,97.56,103.26,96.33,102.98L96.33,102.98z
						 M96.33,102.98c1.2,0.3,2.66,0.34,3.76,0.33c1.06-6.03-0.5-12.21-3.01-17.68c-1.93-3.97-4.53-8.04-8.71-9.77
						c-2.87-1.27-5.73-0.32-6.93,2.65C77.53,87.47,87.52,100.9,96.33,102.98L96.33,102.98z"/>
				</g>
			</g>
			<path class="st55" d="M52.15,103.58c-2.27-0.94-4.88-1.7-7.26-0.72c-0.4,0.16-0.16,0.73,0.23,0.55c2.35-1.11,5.11-0.11,7.34,0.84
				c1.96,0.84,3.84,1.86,5.69,2.93c-1.44-0.4-2.97-0.6-4.43-0.68c-0.96-0.06-1.92-0.05-2.88,0.04c-0.16,0.01-2.15,0.19-1.92,0.53
				c0.18,0.26,0.62,0.15,0.89,0.12c0.46-0.05,0.91-0.09,1.37-0.11c0.89-0.04,1.79-0.04,2.69,0.02c1.76,0.11,3.41,0.51,5.09,0.97
				c-1.85,0.06-3.68,0.67-5.17,1.79c-1.96,1.48-3.48,3.98-3.45,6.49c0,0.15,0.23,0.18,0.26,0.03c0.25-1.2,0.57-2.33,1.17-3.41
				c0.58-1.04,1.37-1.96,2.32-2.68c1.82-1.39,4.2-2,6.46-1.69c0.25,0.03,0.41-0.28,0.17-0.42
				C57.91,106.52,55.15,104.82,52.15,103.58z"/>
			<g>
				<path class="st39" d="M58.8,25.12c-1.71-0.49-3.54-0.45-5.3-0.28c-1.79,0.17-3.56,0.55-5.28,1.07
					c-3.57,1.08-6.99,2.75-10.09,4.83c-6.28,4.22-11.65,10.49-13.74,17.88c-0.89,3.15-1.08,6.73,0.62,9.65
					c1.38,2.38,4.06,3.99,6.81,4c0.11,0.41,0.24,0.81,0.42,1.2c0.76,1.68,2.22,3,3.76,3.97c1.49,0.94,3.2,1.56,4.94,1.81
					c0.86,0.12,1.72,0.16,2.58,0.11c0.47-0.03,0.46-0.76-0.01-0.73c-3.3,0.19-6.66-0.99-9.04-3.29c-0.91-0.88-1.58-1.93-1.93-3.11
					c0.1-0.01,0.21-0.02,0.31-0.03c2.9-0.44,5.28-3.03,5.49-5.95c0.1-1.32-0.3-3.01-1.6-3.65c-1.54-0.76-2.76,1.03-3.49,2.14
					c-1.27,1.95-1.95,4.39-1.62,6.71c-2.49-0.08-4.86-1.67-6.02-3.84c-1.46-2.73-1.18-6.02-0.34-8.89
					c1.95-6.69,6.72-12.51,12.29-16.56c5.39-3.92,11.98-6.73,18.72-6.75c0.82,0,1.63,0.02,2.45,0.02
					C58.94,25.43,58.96,25.17,58.8,25.12z M32.33,61.17c-0.17-1.42,0.07-2.87,0.58-4.2c0.26-0.68,0.61-1.34,1.01-1.95
					c0.4-0.6,0.9-1.35,1.53-1.73c0.67-0.4,1.3,0.05,1.67,0.62c0.38,0.58,0.5,1.26,0.5,1.94c-0.02,2.7-2.26,5.15-4.91,5.54
					c-0.11,0.02-0.23,0.01-0.34,0.02C32.36,61.33,32.34,61.25,32.33,61.17z"/>
				<g>
					<path class="st54" d="M58.8,25.12c-9.87-1.89-21.45,4.76-27.78,12.02c-3.41,3.94-6.04,8.72-6.85,13.86
						c-0.99,5.29,2.18,11.05,7.98,10.86c1.03,4.86,7.21,7.25,11.28,7.11c0,0-0.02,0.04,0.07,0.11c0.03,0.02,0.09,0.02,0.04,0.02
						c-0.87,0.05-1.75,0.01-2.62-0.12c-3.92-0.61-8.04-3.09-8.99-7.18c3.1-0.01,5.91-2.71,6-5.83c0.18-1.63-1.24-4.13-2.94-2.64
						c-2.17,2.13-3.41,5.49-2.87,8.52c-6.25-0.07-8.88-6.45-7.41-11.82c1.17-5,3.93-9.48,7.4-13.17
						c6.74-7.03,16.25-11.99,26.16-11.44c0,0,0.47,0.01,0.47,0.01C58.91,25.47,58.98,25.16,58.8,25.12L58.8,25.12z M58.8,25.12
						c0.19,0.04,0.12,0.35-0.07,0.31l-0.47,0c-4.75-0.21-9.5,0.76-13.8,2.77c-9.03,4.17-17,12.05-19.25,21.94
						c-0.5,2.42-0.48,5.04,0.67,7.21c1.12,2.13,3.42,3.66,5.8,3.71l-0.39,0.44c-0.32-2.15,0.17-4.35,1.19-6.24
						c3.43-6.96,8.42-1.35,5.46,3.89c-1.08,1.92-3.09,3.34-5.32,3.56l0.42-0.63c1.33,4.02,6.16,6.22,10.23,6.08
						c0.24,0,0.44-0.05,0.71,0.1c0.7,0.44,0.38,1.5-0.38,1.54c-2.56,0.14-5.12-0.46-7.33-1.73c-2.21-1.25-4.2-3.19-4.82-5.73
						c0,0,0.39,0.3,0.39,0.3c-6.11-0.12-9.33-6.26-8.2-11.75c0.92-5.28,3.67-10.05,7.18-13.97C37.36,29.78,48.82,23.17,58.8,25.12
						L58.8,25.12z"/>
					<path class="st54" d="M32.33,61.17c-0.66-2.21,1.97-11.14,5.06-7.74c2.26,3.45-1.39,7.84-5.02,7.98
						C32.36,61.41,32.34,61.18,32.33,61.17L32.33,61.17z M32.33,61.17c0,0,0.05,0.25,0.04,0.23c3.35-0.16,6.01-4.48,4.24-7.36
						c-0.48-0.61-0.85-0.55-1.5,0.09C33.34,55.96,32.01,58.53,32.33,61.17L32.33,61.17z"/>
				</g>
			</g>
			<path class="st55" d="M74.73,59.31c0.01-0.04-0.01-0.09-0.05-0.08c-2.99,0.1-6.22-0.79-9.03-1.76c-1.41-0.49-2.81-1.02-4.24-1.49
				c-1.31-0.43-2.78-1.02-4.18-0.78c-1.35,0.23-2.5,1.14-3.08,2.37c-0.08,0.18-0.13,2.31-0.34,3.27c-0.23,1.1-0.56,2.18-1.11,3.17
				c-0.48,0.87-1.13,1.67-1.91,2.29c-0.74,0.59-1.54,0.9-2.43,1.14c-0.14-0.09-0.29-0.18-0.43-0.27c-0.28-0.19-0.56-0.39-0.83-0.59
				c-0.32-0.24-0.64-0.43-0.98-0.65c-0.17-0.11-0.4,0.07-0.27,0.25c0.2,0.28,0.34,0.5,0.59,0.74c0.25,0.24,0.5,0.46,0.77,0.67
				c0.53,0.43,1.08,0.81,1.66,1.17c1.13,0.7,2.33,1.27,3.58,1.75c2.64,1.01,5.49,1.73,8.31,1.98c1.66,0.15,3.51,0.2,5.08-0.44
				c0.21-0.08,0.12-0.38-0.09-0.37c-1.52,0.06-2.99,0.15-4.51-0.03c-1.39-0.17-2.77-0.43-4.14-0.74c-2.53-0.56-4.98-1.39-7.27-2.6
				c-0.29-0.15-0.57-0.32-0.85-0.49c1.72-0.42,3.23-1.91,4.09-3.35c0.6-1.02,1-2.16,1.24-3.31c0.22-1.04,0.37-3.35,0.37-3.35
				c0.77-0.08,1.52,0.31,2.22,0.61c0.69,0.3,1.39,0.58,2.09,0.88c1.41,0.61,2.82,1.22,4.28,1.71c2.54,0.86,5.25,1.29,7.89,0.64
				c1.32-0.33,2.78-0.93,3.61-2.07C74.85,59.48,74.81,59.37,74.73,59.31z M67.21,61.25c-2.92-0.29-5.59-1.54-8.29-2.59
				c-0.72-0.28-1.45-0.56-2.19-0.79c-0.65-0.19-1.29-0.37-1.95-0.26c0.57-1.04,1.63-1.78,2.83-1.88c0.76-0.06,1.52,0.13,2.24,0.34
				c0.69,0.19,1.38,0.41,2.06,0.64c2.6,0.86,5.16,1.88,7.86,2.39c1.41,0.26,3.12,0.44,4.58,0.3c-1.03,0.66-2.02,1.28-3.23,1.59
				C69.86,61.33,68.51,61.38,67.21,61.25z"/>
		</g>
	</g>
</g>
<g>
	<path class="st54" d="M63.18,21.23C73.5,11.15,89.06,7.78,103,10.45c8.15,1.44,16.5,5.34,24.26,8.16
		c10.61,3.87,21.37,7.77,32.61,9.28c11.26,1.33,22.68-0.44,34-0.07c-11.38,0-22.7,1.96-34.08,0.77c-5.68-0.61-11.24-2-16.7-3.62
		c-8.18-2.46-16.18-5.41-24.14-8.47c-5.26-2.12-10.53-4.14-16.11-5.18C89.04,8.62,73.79,11.67,63.18,21.23L63.18,21.23z"/>
</g>
</svg>
