<svg width="140" height="112" viewBox="0 0 140 112" fill="none" xmlns="http://www.w3.org/2000/svg">
<path d="M57.0648 110.118C56.925 110.081 50.3939 108.112 42.5667 103.712C43.9771 102.005 46.5819 97.5809 41.8424 91.8232C41.8424 91.8232 38.2211 97.7803 40.4193 102.454C37.6493 100.771 34.7903 98.8022 32.0203 96.4967C32.8462 95.7115 37.4714 90.7639 31.8932 83.9594C31.8932 83.9594 27.6112 91.0132 31.1944 95.7988C27.6239 92.7081 24.2821 89.0566 21.6137 84.8193C22.9733 84.2211 28.6023 81.1803 26.0356 73.1545C26.0356 73.1545 19.6188 78.0398 20.9149 83.6728C19.3901 81.0432 18.1194 78.2018 17.2427 75.1236C16.9123 73.9895 16.6455 72.8554 16.3913 71.7463C18.1957 71.3848 23.8246 69.6152 23.4307 61.6018C23.4307 61.6018 16.9631 64.3186 15.8958 69.341C15.108 64.9168 14.892 60.6547 15.0826 56.6293C17.1156 56.9035 21.7408 56.7789 24.0915 50.61C24.0915 50.61 18.0813 50.5975 15.2605 54.0994C15.6417 50.0865 16.4168 46.3229 17.4206 42.8583C19.0597 43.4939 24.0661 44.79 27.8145 38.7083C27.8145 38.7083 21.3088 37.487 17.9797 41.0014C19.3901 36.6146 21.1436 32.7637 22.8589 29.5734C24.6251 30.5704 28.9962 32.178 33.5324 27.2554C33.5324 27.2554 28.1067 25.1243 24.1804 27.2055C26.6201 23.043 28.7547 20.3636 29.4028 19.591C30.0889 18.756 30.8259 17.9708 31.5756 17.2106C32.681 17.9833 37.662 20.8746 42.8462 15.2665C42.8462 15.2665 37.789 13.2725 33.9009 15.0048C36.3786 12.8114 38.9835 10.9669 41.4104 9.45899C43.0114 10.4311 47.5603 12.3877 52.2998 7.2656C52.2998 7.2656 49.8856 6.31846 47.1156 6.29353C49.7331 5.0099 51.512 4.34939 51.5502 4.33693L50.8894 2.49249C50.432 2.6545 41.601 5.9072 33.5451 12.6992C34.9174 10.3812 36.5946 5.49593 30.9911 0C30.9911 0 26.0356 10.3563 32.1855 13.8956C30.6861 15.254 29.2249 16.7246 27.8907 18.3322C26.6582 19.8153 25.4384 21.4479 24.2567 23.23C25.0317 20.1642 24.6887 15.9021 19.9619 11.266C19.9619 11.266 14.0279 23.6662 21.5121 27.7912C20.216 30.1342 18.9962 32.6391 17.9161 35.3061C17.7255 32.3525 16.2389 28.7758 11.3723 25.5729C11.3723 25.5729 8.06861 38.4965 15.8069 41.3753C15.0063 44.0672 14.3456 46.8712 13.8755 49.7625C13.3164 46.7217 11.2833 43.145 5.46378 40.6774C5.46378 40.6774 4.59974 54.4858 13.2401 55.4952C12.9987 59.1218 13.0623 62.8481 13.5197 66.6242C11.8806 63.359 8.25921 59.5331 0 59.5331C0 59.5331 5.18424 73.6405 14.244 71.335C14.5362 72.7682 14.892 74.2138 15.3113 75.6595C15.6798 76.9306 16.1245 78.1644 16.6074 79.3608C14.0152 77.0428 9.72045 75.2108 2.84625 76.9805C2.84625 76.9805 11.3088 89.0441 19.3901 84.9938C21.1817 88.0097 23.3164 90.739 25.6417 93.2066C22.3634 91.9105 17.5985 91.6363 11.7154 95.8361C11.7154 95.8361 24.0279 103.999 30.0508 97.4313C31.9949 99.0888 33.9898 100.597 35.9847 101.955C32.5286 101.382 27.8907 102.105 23.075 107.252C23.075 107.252 36.7471 112.86 41.3596 105.295C49.5044 109.919 56.3278 111.975 56.4803 112.025L57.0648 110.118Z" fill="#9065B1"/>
<path d="M82.9479 110.118C83.0876 110.081 89.6188 108.112 97.446 103.712C96.0355 102.005 93.4307 97.5809 98.1702 91.8232C98.1702 91.8232 101.792 97.7803 99.5934 102.454C102.363 100.771 105.222 98.8022 107.992 96.4967C107.166 95.7115 102.541 90.7639 108.119 83.9594C108.119 83.9594 112.414 91.0132 108.818 95.7988C112.389 92.7081 115.731 89.0566 118.399 84.8193C117.039 84.2211 111.41 81.1803 113.99 73.1545C113.99 73.1545 120.407 78.0398 119.111 83.6728C120.635 81.0432 121.906 78.2018 122.783 75.1236C123.113 73.9895 123.38 72.8554 123.634 71.7463C121.83 71.3848 116.188 69.6152 116.595 61.6018C116.595 61.6018 123.062 64.3186 124.13 69.341C124.917 64.9168 125.133 60.6547 124.93 56.6293C122.897 56.9035 118.272 56.7789 115.921 50.61C115.921 50.61 121.931 50.5975 124.752 54.0994C124.371 50.0865 123.596 46.3229 122.592 42.8583C120.953 43.4939 115.947 44.79 112.198 38.7083C112.198 38.7083 118.704 37.487 122.033 41.0014C120.623 36.6146 118.869 32.7637 117.154 29.5734C115.388 30.5704 111.016 32.178 106.48 27.2554C106.48 27.2554 111.906 25.1243 115.832 27.2055C113.393 23.043 111.258 20.3636 110.61 19.591C109.924 18.756 109.187 17.9708 108.437 17.2106C107.332 17.9833 102.351 20.8746 97.1664 15.2665C97.1664 15.2665 102.224 13.2725 106.112 15.0048C103.634 12.8114 101.029 10.9669 98.6023 9.45899C96.9631 10.4311 92.4142 12.3877 87.6747 7.2656C87.6747 7.2656 90.0889 6.31846 92.8589 6.29353C90.2414 5.0099 88.4752 4.34939 88.4244 4.33693L89.1232 2.49249C89.5807 2.6545 98.4117 5.9072 106.468 12.6992C105.095 10.3812 103.418 5.49593 109.034 0C109.034 0 113.99 10.3563 107.84 13.8956C109.339 15.254 110.8 16.7246 112.135 18.3322C113.367 19.8153 114.587 21.4479 115.769 23.23C114.994 20.1642 115.337 15.9021 120.063 11.266C120.063 11.266 125.997 23.6662 118.513 27.7912C119.809 30.1342 121.029 32.6391 122.109 35.3061C122.3 32.3525 123.786 28.7758 128.653 25.5729C128.653 25.5729 131.957 38.4965 124.219 41.3753C125.019 44.0672 125.68 46.8712 126.15 49.7625C126.709 46.7217 128.742 43.145 134.574 40.6774C134.574 40.6774 135.438 54.4858 126.798 55.4952C127.039 59.1218 126.976 62.8481 126.518 66.6242C128.119 63.3466 131.753 59.5206 140 59.5206C140 59.5206 134.816 73.6281 125.756 71.3225C125.464 72.7557 125.108 74.2014 124.689 75.647C124.32 76.9182 123.875 78.1519 123.393 79.3483C125.985 77.0303 130.279 75.1983 137.154 76.968C137.154 76.968 128.691 89.0317 120.61 84.9814C118.806 87.9973 116.671 90.7265 114.358 93.1941C117.637 91.898 122.401 91.6238 128.285 95.8237C128.285 95.8237 115.972 103.987 109.949 97.4189C108.005 99.0764 106.01 100.584 104.015 101.943C107.471 101.369 112.109 102.092 116.925 107.239C116.925 107.239 103.253 112.847 98.6404 105.283C90.4955 109.906 83.6722 111.963 83.5197 112.012L82.9479 110.118Z" fill="#9065B1"/>
</svg>
